<svg id="logo" xmlns="http://www.w3.org/2000/svg" xmlns:xlink="http://www.w3.org/1999/xlink" width="119.583" height="61.046" viewBox="0 0 119.583 61.046">
  <defs>
    <clipPath id="clip-path">
      <rect id="Rectangle_122" data-name="Rectangle 122" width="119.583" height="61.046" fill="none"/>
    </clipPath>
  </defs>
  <path id="Path_222" data-name="Path 222" d="M570.494,0l2.163,11.832h2l-1.8-9.867h10.037l1.8,9.867h2L584.527,0Z" transform="translate(-517.983 0)" fill="#421569"/>
  <path id="Path_223" data-name="Path 223" d="M397.146,91.071l-7.154,39.137H404.3Z" transform="translate(-354.095 -82.688)" fill="#421569"/>
  <path id="Path_224" data-name="Path 224" d="M510.826,102.492l10-.446.339-10.976H496.752Z" transform="translate(-451.028 -82.688)" fill="#ff00f3"/>
  <path id="Path_225" data-name="Path 225" d="M779.574,102.391l7.847,3.945-2.79-15.266h-4.707Z" transform="translate(-707.818 -82.688)" fill="#8dc63f"/>
  <path id="Path_226" data-name="Path 226" d="M528.816,256.879,533.3,243.54l-9.691,3.5,2.934,16.054Z" transform="translate(-475.412 -221.124)" fill="#fbb040"/>
  <path id="Path_227" data-name="Path 227" d="M505.434,125.644l-12.122-9.837,2.43,13.295Z" transform="translate(-447.905 -105.147)" fill="#939598"/>
  <path id="Path_228" data-name="Path 228" d="M780.926,238.619l1.08,12.834,10.727,11.193-3.642-19.922Z" transform="translate(-709.046 -216.655)" fill="#00dbff"/>
  <path id="Path_229" data-name="Path 229" d="M566.05,408.662l-2.989,8.164.318,1.74h17.528Z" transform="translate(-511.234 -371.047)" fill="#ff400d"/>
  <path id="Path_230" data-name="Path 230" d="M619.419,231.645l-9.672.431-4.471,13.3,15.232-.756Z" transform="translate(-549.564 -210.323)" fill="#00a79d"/>
  <g id="Group_3675" data-name="Group 3675">
    <g id="Group_3674" data-name="Group 3674" clip-path="url(#clip-path)">
      <path id="Path_231" data-name="Path 231" d="M2.147,589.767c1.3,0,1.927.654,1.927,1.829v1.114c0,1.246-.689,1.918-2.041,1.918a3.593,3.593,0,0,1-.7-.08v1.565c0,.248-.08.327-.319.327H.327c-.248,0-.327-.08-.327-.327v-5.559a.45.45,0,0,1,.354-.513,5.009,5.009,0,0,1,1.794-.274m.584,1.839c0-.433-.248-.645-.743-.645a2.846,2.846,0,0,0-.61.062.058.058,0,0,0-.044.062v2.3a3.868,3.868,0,0,0,.592.053c.539,0,.8-.239.8-.725Z" transform="translate(0 -535.482)" fill="#421569"/>
      <path id="Path_232" data-name="Path 232" d="M56.619,589.767c.238,0,.327.079.327.327v.548c0,.238-.089.318-.327.318h-.327a2.685,2.685,0,0,0-.627.062.058.058,0,0,0-.053.062v3.084c0,.248-.08.327-.319.327H54.6c-.248,0-.327-.08-.327-.327v-3.614a.45.45,0,0,1,.354-.513,5.276,5.276,0,0,1,1.7-.274Z" transform="translate(-49.281 -535.482)" fill="#421569"/>
      <path id="Path_233" data-name="Path 233" d="M90.918,572.1c.468,0,.627.159.627.627v.089c0,.468-.159.627-.627.627h-.185c-.486,0-.628-.159-.628-.627v-.089c0-.468.142-.627.628-.627Zm.256,1.758c.238,0,.318.08.318.327v3.942c0,.248-.079.327-.318.327h-.69c-.248,0-.327-.079-.327-.327v-3.942c0-.248.08-.327.327-.327Z" transform="translate(-81.811 -519.442)" fill="#421569"/>
      <path id="Path_234" data-name="Path 234" d="M118.879,589.767q1.909,0,1.909,1.829v2.572c0,.248-.08.327-.318.327h-.69c-.248,0-.327-.08-.327-.327v-2.527c0-.442-.248-.663-.751-.663a2.23,2.23,0,0,0-.619.08c-.018,0-.027.009-.027.036v3.075c0,.248-.079.327-.327.327h-.68c-.248,0-.327-.08-.327-.327V590.6a.451.451,0,0,1,.354-.513,4.7,4.7,0,0,1,1.8-.318" transform="translate(-105.978 -535.482)" fill="#421569"/>
      <path id="Path_235" data-name="Path 235" d="M169.545,579.685c.238,0,.318.08.318.327v.733h.822c.239,0,.318.08.318.327v.531c0,.247-.079.327-.318.327h-.822v1.485c0,.663.2.822.813.822.247,0,.326.08.326.336v.557c0,.256-.079.327-.326.336a2.357,2.357,0,0,1-1.653-.407,2.075,2.075,0,0,1-.495-1.591V581.93h-.468c-.248,0-.327-.08-.327-.327v-.531c0-.248.079-.327.327-.327h.468v-.733c0-.248.088-.327.327-.327Z" transform="translate(-152.294 -526.328)" fill="#421569"/>
      <path id="Path_236" data-name="Path 236" d="M210.576,591.729c0-1.272.751-1.962,2.121-1.962,1.406,0,2.13.778,2.13,1.865v.539c0,.292-.15.442-.46.442h-2.457v.221c0,.469.265.7.8.7a.977.977,0,0,0,.839-.354c.15-.212.256-.248.513-.115l.433.221a.327.327,0,0,1,.141.521,2.112,2.112,0,0,1-1.944.822c-1.45,0-2.112-.769-2.112-1.962Zm2.908-.221c0-.451-.266-.681-.787-.681s-.786.23-.786.681v.141h1.573Z" transform="translate(-191.194 -535.482)" fill="#421569"/>
      <path id="Path_237" data-name="Path 237" d="M264.854,573.816a1.715,1.715,0,0,1,1.918-1.918,7.236,7.236,0,0,1,.813.053v-1.538c0-.247.08-.327.327-.327h.681c.247,0,.327.08.327.327v5.56c0,.291-.062.371-.354.485a4.484,4.484,0,0,1-1.741.3c-1.317,0-1.971-.61-1.971-1.829Zm2.732-.672a3.806,3.806,0,0,0-.592-.053c-.539,0-.8.238-.8.725v1.1c0,.415.274.645.742.645a2.49,2.49,0,0,0,.628-.062.04.04,0,0,0,.026-.044Z" transform="translate(-240.476 -517.613)" fill="#421569"/>
      <path id="Path_238" data-name="Path 238" d="M319.038,591.642c0-1.193.689-1.874,2.1-1.874a1.879,1.879,0,0,1,1.935,1.176c.08.256.018.362-.23.46l-.566.185c-.256.1-.371.035-.468-.221a.708.708,0,0,0-.725-.45q-.716,0-.716.663v1.237q0,.663.716.662a.707.707,0,0,0,.725-.45c.1-.248.212-.292.468-.212l.575.177c.247.08.327.23.229.468a1.976,1.976,0,0,1-2.033,1.166c-1.343,0-2.015-.627-2.015-1.874Z" transform="translate(-289.672 -535.483)" fill="#421569"/>
      <path id="Path_239" data-name="Path 239" d="M372.1,589.767c1.317,0,1.971.619,1.971,1.865v2.245c0,.309-.071.407-.327.513a4.334,4.334,0,0,1-1.67.238,2.571,2.571,0,0,1-1.582-.354,1.339,1.339,0,0,1-.442-1.1c0-1.087.575-1.449,2.059-1.449.23,0,.442.009.628.018v-.195a.592.592,0,0,0-.681-.654.855.855,0,0,0-.733.327c-.15.2-.2.239-.451.142l-.486-.2a.3.3,0,0,1-.177-.468,1.947,1.947,0,0,1,1.892-.919m.636,2.987c-.053,0-.168,0-.345-.009s-.309-.009-.4-.009c-.468,0-.61.15-.61.424s.132.433.592.433a4.614,4.614,0,0,0,.7-.035c.044-.009.062-.036.062-.062Z" transform="translate(-335.988 -535.482)" fill="#421569"/>
      <path id="Path_240" data-name="Path 240" d="M426.762,589.767c.238,0,.327.079.327.327v.548c0,.238-.089.318-.327.318h-.327a2.685,2.685,0,0,0-.627.062.058.058,0,0,0-.053.062v3.084c0,.248-.08.327-.319.327h-.689c-.248,0-.327-.08-.327-.327v-3.614a.45.45,0,0,1,.354-.513,5.275,5.275,0,0,1,1.7-.274Z" transform="translate(-385.355 -535.482)" fill="#421569"/>
      <path id="Path_241" data-name="Path 241" d="M463.072,589.767c.239,0,.327.079.327.327v.548c0,.238-.089.318-.327.318h-.327a2.685,2.685,0,0,0-.627.062.058.058,0,0,0-.053.062v3.084c0,.248-.08.327-.319.327h-.689c-.248,0-.327-.08-.327-.327v-3.614a.45.45,0,0,1,.354-.513,5.275,5.275,0,0,1,1.7-.274Z" transform="translate(-418.322 -535.482)" fill="#421569"/>
      <path id="Path_242" data-name="Path 242" d="M497.378,572.1c.468,0,.627.159.627.627v.089c0,.468-.159.627-.627.627h-.185c-.486,0-.628-.159-.628-.627v-.089c0-.468.142-.627.628-.627Zm.256,1.758c.238,0,.318.08.318.327v3.942c0,.248-.08.327-.318.327h-.69c-.248,0-.327-.079-.327-.327v-3.942c0-.248.08-.327.327-.327Z" transform="translate(-450.859 -519.442)" fill="#421569"/>
      <path id="Path_243" data-name="Path 243" d="M521.736,591.729c0-1.272.751-1.962,2.121-1.962,1.406,0,2.13.778,2.13,1.865v.539c0,.292-.15.442-.46.442h-2.457v.221c0,.469.265.7.8.7a.977.977,0,0,0,.839-.354c.15-.212.256-.248.513-.115l.433.221a.327.327,0,0,1,.141.521,2.112,2.112,0,0,1-1.944.822c-1.45,0-2.112-.769-2.112-1.962Zm2.908-.221c0-.451-.266-.681-.787-.681s-.786.23-.786.681v.141h1.573Z" transform="translate(-473.713 -535.482)" fill="#421569"/>
      <path id="Path_244" data-name="Path 244" d="M579.6,589.767c.238,0,.327.079.327.327v.548c0,.238-.089.318-.327.318h-.327a2.685,2.685,0,0,0-.627.062.058.058,0,0,0-.053.062v3.084c0,.248-.08.327-.319.327h-.689c-.248,0-.327-.08-.327-.327v-3.614a.45.45,0,0,1,.354-.513,5.275,5.275,0,0,1,1.7-.274Z" transform="translate(-524.125 -535.482)" fill="#421569"/>
      <path id="Path_245" data-name="Path 245" d="M614.592,570.086c.239,0,.319.08.319.327v1.574a3.764,3.764,0,0,1,.831-.089,1.671,1.671,0,0,1,1.909,1.829v1.1c0,1.282-.689,1.927-2.076,1.927a4.051,4.051,0,0,1-1.67-.292c-.283-.142-.327-.212-.327-.495v-5.56c0-.247.079-.327.327-.327Zm1.715,3.65c0-.433-.248-.645-.743-.645a2.4,2.4,0,0,0-.654.1v2.263a.04.04,0,0,0,.026.044,2,2,0,0,0,.566.071c.539,0,.8-.248.8-.734Z" transform="translate(-557.1 -517.613)" fill="#421569"/>
      <path id="Path_246" data-name="Path 246" d="M667.788,589.767c1.317,0,1.971.619,1.971,1.865v2.245c0,.309-.071.407-.327.513a4.334,4.334,0,0,1-1.67.238,2.571,2.571,0,0,1-1.582-.354,1.339,1.339,0,0,1-.442-1.1c0-1.087.575-1.449,2.059-1.449.23,0,.442.009.628.018v-.195a.592.592,0,0,0-.681-.654.855.855,0,0,0-.733.327c-.15.2-.2.239-.451.142l-.486-.2a.3.3,0,0,1-.177-.468,1.947,1.947,0,0,1,1.892-.919m.637,2.987c-.053,0-.168,0-.345-.009s-.309-.009-.4-.009c-.468,0-.61.15-.61.424s.133.433.592.433a4.616,4.616,0,0,0,.7-.035c.044-.009.062-.036.062-.062Z" transform="translate(-604.46 -535.482)" fill="#421569"/>
      <path id="Path_247" data-name="Path 247" d="M719.432,591.685c0-1.282.69-1.918,2.068-1.918a3.887,3.887,0,0,1,1.67.291c.283.133.327.2.327.5v4.013a1.776,1.776,0,0,1-2.016,1.962,2.091,2.091,0,0,1-1.9-.822.319.319,0,0,1,.142-.521l.495-.256c.248-.132.362-.1.513.115a.832.832,0,0,0,.725.336.63.63,0,0,0,.707-.715v-.38a3.735,3.735,0,0,1-.822.088q-1.91,0-1.91-1.83Zm2.139-.725c-.539,0-.8.239-.8.725v.848c0,.415.274.645.743.645a3.273,3.273,0,0,0,.654-.062v-2.041a.049.049,0,0,0-.036-.053,2.377,2.377,0,0,0-.556-.062" transform="translate(-653.212 -535.482)" fill="#421569"/>
      <path id="Path_248" data-name="Path 248" d="M775.494,589.767a2.02,2.02,0,0,1,1.962.946.3.3,0,0,1-.177.468l-.521.221c-.256.1-.3.07-.451-.142a.885.885,0,0,0-.769-.336c-.433,0-.654.106-.654.318,0,.256.212.336.857.4,1.282.132,1.874.46,1.874,1.449,0,.928-.725,1.538-1.988,1.538-1.07,0-1.751-.354-2.033-1.052a.3.3,0,0,1,.213-.442l.539-.177c.221-.08.327-.035.433.185s.371.336.8.336c.5,0,.76-.123.76-.362,0-.283-.2-.353-.937-.424a2.843,2.843,0,0,1-1.246-.336,1.178,1.178,0,0,1-.566-1.114c0-.892.672-1.476,1.9-1.476" transform="translate(-702.36 -535.482)" fill="#421569"/>
      <path id="Path_249" data-name="Path 249" d="M826.411,589.767a2.02,2.02,0,0,1,1.962.946.3.3,0,0,1-.177.468l-.521.221c-.256.1-.3.07-.451-.142a.885.885,0,0,0-.769-.336c-.433,0-.654.106-.654.318,0,.256.212.336.857.4,1.282.132,1.874.46,1.874,1.449,0,.928-.725,1.538-1.988,1.538-1.07,0-1.751-.354-2.033-1.052a.3.3,0,0,1,.213-.442l.539-.177c.221-.08.327-.035.433.185s.371.336.8.336c.5,0,.76-.123.76-.362,0-.283-.2-.353-.937-.424a2.844,2.844,0,0,1-1.247-.336,1.178,1.178,0,0,1-.566-1.114c0-.892.672-1.476,1.9-1.476" transform="translate(-748.59 -535.482)" fill="#421569"/>
      <path id="Path_250" data-name="Path 250" d="M877.323,570.086c.247,0,.327.08.327.327v1.547l.124-.018a5.139,5.139,0,0,1,.7-.044q1.91,0,1.91,1.829V576.3c0,.248-.08.327-.319.327h-.689c-.247,0-.327-.08-.327-.327v-2.527c0-.442-.248-.663-.751-.663a2.852,2.852,0,0,0-.61.062l-.036.009v3.12c0,.248-.079.327-.327.327h-.681c-.247,0-.327-.08-.327-.327v-5.886c0-.247.079-.327.327-.327Z" transform="translate(-795.655 -517.613)" fill="#421569"/>
      <path id="Path_251" data-name="Path 251" d="M930.21,591.633c0-1.176.734-1.865,2.1-1.865s2.112.689,2.112,1.865v1.14c0,1.176-.734,1.856-2.112,1.856s-2.1-.689-2.1-1.856Zm2.881-.018c0-.442-.256-.663-.778-.663s-.769.221-.769.663v1.166q0,.664.769.663c.521,0,.778-.221.778-.663Z" transform="translate(-844.589 -535.483)" fill="#421569"/>
      <path id="Path_252" data-name="Path 252" d="M988.169,589.767c1.3,0,1.927.654,1.927,1.829v1.114c0,1.246-.69,1.918-2.042,1.918a3.594,3.594,0,0,1-.7-.08v1.565c0,.248-.079.327-.319.327h-.689c-.248,0-.327-.08-.327-.327v-5.559a.45.45,0,0,1,.354-.513,5.009,5.009,0,0,1,1.794-.274m.584,1.839c0-.433-.248-.645-.742-.645a2.847,2.847,0,0,0-.61.062.058.058,0,0,0-.044.062v2.3a3.868,3.868,0,0,0,.592.053c.539,0,.8-.239.8-.725Z" transform="translate(-895.264 -535.482)" fill="#421569"/>
      <path id="Path_253" data-name="Path 253" d="M1040.342,625.582c.5,0,.672.168.672.672v.168c0,.5-.168.663-.672.663h-.15c-.5,0-.663-.159-.663-.663v-.168c0-.5.159-.672.663-.672Z" transform="translate(-943.846 -568.001)" fill="#00a79d"/>
      <path id="Path_254" data-name="Path 254" d="M1064.894,591.642c0-1.193.689-1.874,2.1-1.874a1.879,1.879,0,0,1,1.936,1.176c.079.256.018.362-.23.46l-.565.185c-.256.1-.371.035-.469-.221a.708.708,0,0,0-.724-.45q-.716,0-.716.663v1.237q0,.663.716.662a.707.707,0,0,0,.724-.45c.1-.248.212-.292.469-.212l.575.177c.247.08.326.23.229.468a1.976,1.976,0,0,1-2.033,1.166c-1.343,0-2.015-.627-2.015-1.874Z" transform="translate(-966.876 -535.483)" fill="#00a79d"/>
      <path id="Path_255" data-name="Path 255" d="M1116.674,591.633c0-1.176.734-1.865,2.1-1.865s2.112.689,2.112,1.865v1.14c0,1.176-.734,1.856-2.112,1.856s-2.1-.689-2.1-1.856Zm2.881-.018c0-.442-.256-.663-.778-.663s-.769.221-.769.663v1.166q0,.664.769.663c.521,0,.778-.221.778-.663Z" transform="translate(-1013.89 -535.483)" fill="#00a79d"/>
      <path id="Path_256" data-name="Path 256" d="M1172.535,625.582c.5,0,.672.168.672.672v.168c0,.5-.168.663-.672.663h-.15c-.5,0-.663-.159-.663-.663v-.168c0-.5.159-.672.663-.672Z" transform="translate(-1063.872 -568.001)" fill="#00a79d"/>
      <path id="Path_257" data-name="Path 257" d="M1201.885,591.206c.239,0,.318.08.318.327V595.1a.444.444,0,0,1-.344.513,4.809,4.809,0,0,1-1.812.318q-1.909,0-1.909-1.829v-2.572c0-.248.079-.327.327-.327h.68c.248,0,.327.08.327.327v2.528c0,.442.247.663.751.663a2.543,2.543,0,0,0,.584-.062.1.1,0,0,0,.062-.1v-3.032c0-.248.079-.327.327-.327Z" transform="translate(-1087.856 -536.789)" fill="#00a79d"/>
      <path id="Path_258" data-name="Path 258" d="M1257.953,576.228c.15.283.1.4-.221.4h-.61c-.379,0-.468-.044-.583-.3l-.469-1.087a.556.556,0,0,0-.566-.354h-.309v1.405c0,.256-.08.336-.336.336h-.662c-.256,0-.336-.079-.336-.336v-5.868c0-.256.079-.336.336-.336h.662c.256,0,.336.08.336.336V573.7h.239l1-1.4c.15-.239.247-.266.627-.266h.592c.327,0,.407.132.221.389l-1.184,1.617a1.679,1.679,0,0,1,.495.636Z" transform="translate(-1138.45 -517.612)" fill="#00a79d"/>
      <path id="Path_259" data-name="Path 259" d="M648.109,404.9l-10.819-11.29-14.264.71L638.9,404.9Z" transform="translate(-565.679 -357.379)" fill="#8b5e3c"/>
    </g>
  </g>
</svg>
